# xmcd
#
# Track frame offsets: 
#        150
#        20600
#        39309
#        61064
#        72923
#        89745
#        105806
#        118216
#        138002
#        160427
#        180634
#        195800
#        220279
#        239421
#
# Disc length: 3487 seconds
#
# Revision: 0
# Processed by: cddbd v1.5.1PL0 Copyright (c) Steve Scherf et al.
# Submitted via: ExactAudioCopy v0.95a3
#
DISCID=ba0d9d0e
DTITLE=Various Artist - Настройся На Лучшее. Часть 1
DYEAR=1995
DGENRE=Rock
TTITLE0=Наутилус Помпилиус - Бегущая Вдаль
TTITLE1=Два Самолёта - Пчёлы И Мёд
TTITLE2=Чиж and К - О.К.
TTITLE3=Павел Кашин - Милая Моя
TTITLE4=Колибри - Всё О Нас
TTITLE5=НОМ - Укрблюз
TTITLE6=Чай Вдвоём - Пилот
TTITLE7=Опасные Соседи - С Больной Головой
TTITLE8=НЭП - Побудь Со Мной
TTITLE9=Авиа - Песня Гремящей Радости
TTITLE10=Препинаки - Весёлый Человек
TTITLE11=Сергей Данилов И Чёрный Кот - Так Будет Лучше
TTITLE12=Странные Игры - Хороводная
TTITLE13=Оазис Ю - Европа - Блюз
EXTD=
EXTT0=
EXTT1=
EXTT2=
EXTT3=
EXTT4=
EXTT5=
EXTT6=
EXTT7=
EXTT8=
EXTT9=
EXTT10=
EXTT11=
EXTT12=
EXTT13=
PLAYORDER=
